<mxfile host="Electron" agent="Mozilla/5.0 (Windows NT 10.0; Win64; x64) AppleWebKit/537.36 (KHTML, like Gecko) draw.io/28.0.6 Chrome/138.0.7204.100 Electron/37.2.3 Safari/537.36" version="28.0.6">
  <diagram name="Page-1" id="R90nyv3Rz4XIFROkiVHW">
    <mxGraphModel dx="1901" dy="1292" grid="1" gridSize="10" guides="1" tooltips="1" connect="1" arrows="1" fold="1" page="1" pageScale="1" pageWidth="1600" pageHeight="1200" math="0" shadow="0">
      <root>
        <mxCell id="0" />
        <mxCell id="1" parent="0" />
        <mxCell id="3E_d9uGPmS8snrze4PGS-1" value="" style="whiteSpace=wrap;html=1;shadow=0;" parent="1" vertex="1">
          <mxGeometry x="100" y="240" width="780" height="720" as="geometry" />
        </mxCell>
        <mxCell id="3E_d9uGPmS8snrze4PGS-2" value="&lt;font style=&quot;font-size: 24px;&quot;&gt;Prefilter&lt;/font&gt;" style="text;html=1;align=center;verticalAlign=middle;resizable=0;points=[];autosize=1;strokeColor=none;fillColor=none;shadow=0;" parent="1" vertex="1">
          <mxGeometry x="545" y="180" width="110" height="40" as="geometry" />
        </mxCell>
        <mxCell id="3E_d9uGPmS8snrze4PGS-4" value="&lt;font style=&quot;font-size: 24px;&quot;&gt;Trajectory Switch&lt;/font&gt;" style="text;html=1;align=center;verticalAlign=middle;resizable=0;points=[];autosize=1;strokeColor=none;fillColor=none;shadow=0;" parent="1" vertex="1">
          <mxGeometry x="245" y="170" width="210" height="40" as="geometry" />
        </mxCell>
        <mxCell id="3E_d9uGPmS8snrze4PGS-6" value="&lt;font style=&quot;font-size: 24px;&quot;&gt;Phases&lt;/font&gt;" style="text;html=1;align=center;verticalAlign=middle;resizable=0;points=[];autosize=1;strokeColor=none;fillColor=none;shadow=0;" parent="1" vertex="1">
          <mxGeometry x="410" y="1000" width="100" height="40" as="geometry" />
        </mxCell>
        <mxCell id="3E_d9uGPmS8snrze4PGS-10" value="" style="endArrow=classic;html=1;rounded=0;shadow=0;" parent="1" edge="1">
          <mxGeometry width="50" height="50" relative="1" as="geometry">
            <mxPoint x="520" y="1019" as="sourcePoint" />
            <mxPoint x="710" y="1019.41" as="targetPoint" />
            <Array as="points">
              <mxPoint x="670" y="1019.41" />
            </Array>
          </mxGeometry>
        </mxCell>
        <mxCell id="3E_d9uGPmS8snrze4PGS-11" value="" style="endArrow=classic;html=1;rounded=0;shadow=0;" parent="1" edge="1">
          <mxGeometry width="50" height="50" relative="1" as="geometry">
            <mxPoint x="390" y="1019" as="sourcePoint" />
            <mxPoint x="210" y="1019.41" as="targetPoint" />
          </mxGeometry>
        </mxCell>
        <mxCell id="3E_d9uGPmS8snrze4PGS-20" style="edgeStyle=none;rounded=0;orthogonalLoop=1;jettySize=auto;html=1;exitX=1;exitY=0.5;exitDx=0;exitDy=0;shadow=0;entryX=0.5;entryY=0;entryDx=0;entryDy=0;" parent="1" source="3E_d9uGPmS8snrze4PGS-14" target="GmHCTYgidwJcOvD8zUk5-25" edge="1">
          <mxGeometry relative="1" as="geometry">
            <Array as="points">
              <mxPoint x="820" y="340" />
            </Array>
            <mxPoint x="850" y="610" as="targetPoint" />
          </mxGeometry>
        </mxCell>
        <mxCell id="GmHCTYgidwJcOvD8zUk5-6" style="edgeStyle=orthogonalEdgeStyle;rounded=0;orthogonalLoop=1;jettySize=auto;html=1;exitX=0.5;exitY=1;exitDx=0;exitDy=0;" edge="1" parent="1" source="3E_d9uGPmS8snrze4PGS-14" target="GmHCTYgidwJcOvD8zUk5-4">
          <mxGeometry relative="1" as="geometry" />
        </mxCell>
        <mxCell id="3E_d9uGPmS8snrze4PGS-14" value="wn1" style="rounded=1;whiteSpace=wrap;html=1;shadow=0;" parent="1" vertex="1">
          <mxGeometry x="455" y="310" width="120" height="60" as="geometry" />
        </mxCell>
        <mxCell id="3E_d9uGPmS8snrze4PGS-15" value="Joint 1" style="text;html=1;align=center;verticalAlign=middle;whiteSpace=wrap;rounded=0;shadow=0;" parent="1" vertex="1">
          <mxGeometry x="485" y="270" width="60" height="30" as="geometry" />
        </mxCell>
        <mxCell id="3E_d9uGPmS8snrze4PGS-21" style="edgeStyle=none;rounded=0;orthogonalLoop=1;jettySize=auto;html=1;exitX=1;exitY=0.5;exitDx=0;exitDy=0;shadow=0;entryX=0;entryY=0.5;entryDx=0;entryDy=0;" parent="1" source="3E_d9uGPmS8snrze4PGS-16" target="GmHCTYgidwJcOvD8zUk5-25" edge="1">
          <mxGeometry relative="1" as="geometry">
            <Array as="points" />
          </mxGeometry>
        </mxCell>
        <mxCell id="3E_d9uGPmS8snrze4PGS-16" value="wn" style="rounded=1;whiteSpace=wrap;html=1;shadow=0;" parent="1" vertex="1">
          <mxGeometry x="455" y="530" width="120" height="60" as="geometry" />
        </mxCell>
        <mxCell id="3E_d9uGPmS8snrze4PGS-17" value="Joint 2" style="text;html=1;align=center;verticalAlign=middle;whiteSpace=wrap;rounded=0;shadow=0;" parent="1" vertex="1">
          <mxGeometry x="485" y="500" width="60" height="30" as="geometry" />
        </mxCell>
        <mxCell id="3E_d9uGPmS8snrze4PGS-24" style="edgeStyle=none;rounded=0;orthogonalLoop=1;jettySize=auto;html=1;exitX=1;exitY=0.5;exitDx=0;exitDy=0;entryX=0.5;entryY=1;entryDx=0;entryDy=0;shadow=0;" parent="1" source="3E_d9uGPmS8snrze4PGS-18" target="GmHCTYgidwJcOvD8zUk5-25" edge="1">
          <mxGeometry relative="1" as="geometry">
            <Array as="points">
              <mxPoint x="770" y="805" />
            </Array>
          </mxGeometry>
        </mxCell>
        <mxCell id="3E_d9uGPmS8snrze4PGS-18" value="wn" style="rounded=1;whiteSpace=wrap;html=1;shadow=0;" parent="1" vertex="1">
          <mxGeometry x="455" y="775" width="120" height="60" as="geometry" />
        </mxCell>
        <mxCell id="3E_d9uGPmS8snrze4PGS-19" value="Joint 3" style="text;html=1;align=center;verticalAlign=middle;whiteSpace=wrap;rounded=0;shadow=0;" parent="1" vertex="1">
          <mxGeometry x="490" y="745" width="60" height="30" as="geometry" />
        </mxCell>
        <mxCell id="3E_d9uGPmS8snrze4PGS-26" style="edgeStyle=none;rounded=0;orthogonalLoop=1;jettySize=auto;html=1;exitX=1;exitY=0.5;exitDx=0;exitDy=0;entryX=0;entryY=0.5;entryDx=0;entryDy=0;shadow=0;" parent="1" source="3E_d9uGPmS8snrze4PGS-25" edge="1">
          <mxGeometry relative="1" as="geometry">
            <mxPoint x="270" y="390" as="targetPoint" />
            <Array as="points">
              <mxPoint x="220" y="390" />
            </Array>
          </mxGeometry>
        </mxCell>
        <mxCell id="3E_d9uGPmS8snrze4PGS-27" style="edgeStyle=none;rounded=0;orthogonalLoop=1;jettySize=auto;html=1;exitX=1;exitY=0.5;exitDx=0;exitDy=0;shadow=0;" parent="1" source="3E_d9uGPmS8snrze4PGS-25" edge="1">
          <mxGeometry relative="1" as="geometry">
            <mxPoint x="270" y="610" as="targetPoint" />
          </mxGeometry>
        </mxCell>
        <mxCell id="3E_d9uGPmS8snrze4PGS-28" style="edgeStyle=none;rounded=0;orthogonalLoop=1;jettySize=auto;html=1;exitX=1;exitY=0.5;exitDx=0;exitDy=0;shadow=0;" parent="1" source="3E_d9uGPmS8snrze4PGS-25" edge="1">
          <mxGeometry relative="1" as="geometry">
            <mxPoint x="270" y="860" as="targetPoint" />
            <Array as="points">
              <mxPoint x="220" y="860" />
            </Array>
          </mxGeometry>
        </mxCell>
        <mxCell id="3E_d9uGPmS8snrze4PGS-25" value="Final point" style="rounded=1;whiteSpace=wrap;html=1;shadow=0;" parent="1" vertex="1">
          <mxGeometry x="100" y="580" width="120" height="60" as="geometry" />
        </mxCell>
        <mxCell id="3E_d9uGPmS8snrze4PGS-33" value="" style="edgeStyle=none;rounded=0;orthogonalLoop=1;jettySize=auto;html=1;" parent="1" source="3E_d9uGPmS8snrze4PGS-29" target="3E_d9uGPmS8snrze4PGS-32" edge="1">
          <mxGeometry relative="1" as="geometry" />
        </mxCell>
        <mxCell id="3E_d9uGPmS8snrze4PGS-29" value="" style="ellipse;whiteSpace=wrap;html=1;" parent="1" vertex="1">
          <mxGeometry x="920" y="595" width="30" height="30" as="geometry" />
        </mxCell>
        <mxCell id="3E_d9uGPmS8snrze4PGS-31" value="qDesired" style="text;html=1;align=center;verticalAlign=middle;resizable=0;points=[];autosize=1;strokeColor=none;fillColor=none;" parent="1" vertex="1">
          <mxGeometry x="850" y="570.16" width="70" height="30" as="geometry" />
        </mxCell>
        <mxCell id="3E_d9uGPmS8snrze4PGS-35" value="" style="edgeStyle=none;rounded=0;orthogonalLoop=1;jettySize=auto;html=1;" parent="1" source="3E_d9uGPmS8snrze4PGS-32" target="3E_d9uGPmS8snrze4PGS-34" edge="1">
          <mxGeometry relative="1" as="geometry" />
        </mxCell>
        <mxCell id="3E_d9uGPmS8snrze4PGS-32" value="PD Controller" style="whiteSpace=wrap;html=1;" parent="1" vertex="1">
          <mxGeometry x="985" y="580" width="120" height="60" as="geometry" />
        </mxCell>
        <mxCell id="3E_d9uGPmS8snrze4PGS-37" value="" style="edgeStyle=none;rounded=0;orthogonalLoop=1;jettySize=auto;html=1;entryX=-0.028;entryY=0.503;entryDx=0;entryDy=0;entryPerimeter=0;" parent="1" source="3E_d9uGPmS8snrze4PGS-34" target="3E_d9uGPmS8snrze4PGS-50" edge="1">
          <mxGeometry relative="1" as="geometry">
            <mxPoint x="1385" y="610" as="targetPoint" />
          </mxGeometry>
        </mxCell>
        <mxCell id="3E_d9uGPmS8snrze4PGS-34" value="Plant" style="whiteSpace=wrap;html=1;" parent="1" vertex="1">
          <mxGeometry x="1185" y="580" width="120" height="60" as="geometry" />
        </mxCell>
        <mxCell id="3E_d9uGPmS8snrze4PGS-39" value="" style="edgeStyle=none;rounded=0;orthogonalLoop=1;jettySize=auto;html=1;exitX=1;exitY=0.5;exitDx=0;exitDy=0;" parent="1" source="3E_d9uGPmS8snrze4PGS-50" target="3E_d9uGPmS8snrze4PGS-38" edge="1">
          <mxGeometry relative="1" as="geometry">
            <mxPoint x="1430" y="610" as="sourcePoint" />
          </mxGeometry>
        </mxCell>
        <mxCell id="3E_d9uGPmS8snrze4PGS-40" style="edgeStyle=none;rounded=0;orthogonalLoop=1;jettySize=auto;html=1;exitX=1;exitY=0.5;exitDx=0;exitDy=0;entryX=0.5;entryY=1;entryDx=0;entryDy=0;" parent="1" source="3E_d9uGPmS8snrze4PGS-38" target="3E_d9uGPmS8snrze4PGS-29" edge="1">
          <mxGeometry relative="1" as="geometry">
            <Array as="points">
              <mxPoint x="1570" y="611" />
              <mxPoint x="1570" y="701" />
              <mxPoint x="1570" y="791" />
              <mxPoint x="935" y="791" />
            </Array>
          </mxGeometry>
        </mxCell>
        <mxCell id="3E_d9uGPmS8snrze4PGS-38" value="1/s" style="whiteSpace=wrap;html=1;" parent="1" vertex="1">
          <mxGeometry x="1490" y="580" width="35" height="60" as="geometry" />
        </mxCell>
        <mxCell id="3E_d9uGPmS8snrze4PGS-41" value="qActual" style="text;html=1;align=center;verticalAlign=middle;resizable=0;points=[];autosize=1;strokeColor=none;fillColor=none;" parent="1" vertex="1">
          <mxGeometry x="880" y="655" width="60" height="30" as="geometry" />
        </mxCell>
        <mxCell id="3E_d9uGPmS8snrze4PGS-50" value="1/s" style="whiteSpace=wrap;html=1;" parent="1" vertex="1">
          <mxGeometry x="1380" y="580" width="35" height="60" as="geometry" />
        </mxCell>
        <mxCell id="GmHCTYgidwJcOvD8zUk5-4" value="wn2" style="rounded=1;whiteSpace=wrap;html=1;shadow=0;dashed=1;dashPattern=12 12;" vertex="1" parent="1">
          <mxGeometry x="455" y="410" width="120" height="60" as="geometry" />
        </mxCell>
        <mxCell id="GmHCTYgidwJcOvD8zUk5-7" value="State update" style="text;html=1;align=center;verticalAlign=middle;resizable=0;points=[];autosize=1;strokeColor=none;fillColor=none;" vertex="1" parent="1">
          <mxGeometry x="520" y="375" width="90" height="30" as="geometry" />
        </mxCell>
        <mxCell id="GmHCTYgidwJcOvD8zUk5-13" value="" style="endArrow=classic;html=1;rounded=0;entryX=0;entryY=0.5;entryDx=0;entryDy=0;" edge="1" parent="1" target="3E_d9uGPmS8snrze4PGS-14">
          <mxGeometry width="50" height="50" relative="1" as="geometry">
            <mxPoint x="320" y="390" as="sourcePoint" />
            <mxPoint x="370" y="340" as="targetPoint" />
          </mxGeometry>
        </mxCell>
        <mxCell id="GmHCTYgidwJcOvD8zUk5-14" value="" style="endArrow=classic;html=1;rounded=0;entryX=0;entryY=0.5;entryDx=0;entryDy=0;dashed=1;dashPattern=12 12;" edge="1" parent="1" target="GmHCTYgidwJcOvD8zUk5-4">
          <mxGeometry width="50" height="50" relative="1" as="geometry">
            <mxPoint x="320" y="390" as="sourcePoint" />
            <mxPoint x="455" y="340" as="targetPoint" />
          </mxGeometry>
        </mxCell>
        <mxCell id="GmHCTYgidwJcOvD8zUk5-16" value="" style="endArrow=classic;html=1;rounded=0;entryX=0;entryY=0.5;entryDx=0;entryDy=0;" edge="1" parent="1">
          <mxGeometry width="50" height="50" relative="1" as="geometry">
            <mxPoint x="320" y="610" as="sourcePoint" />
            <mxPoint x="455" y="560" as="targetPoint" />
          </mxGeometry>
        </mxCell>
        <mxCell id="GmHCTYgidwJcOvD8zUk5-17" value="" style="endArrow=classic;html=1;rounded=0;entryX=0;entryY=0.5;entryDx=0;entryDy=0;dashed=1;dashPattern=12 12;" edge="1" parent="1">
          <mxGeometry width="50" height="50" relative="1" as="geometry">
            <mxPoint x="320" y="610" as="sourcePoint" />
            <mxPoint x="455" y="660" as="targetPoint" />
          </mxGeometry>
        </mxCell>
        <mxCell id="GmHCTYgidwJcOvD8zUk5-19" value="" style="endArrow=classic;html=1;rounded=0;entryX=0;entryY=0.5;entryDx=0;entryDy=0;" edge="1" parent="1">
          <mxGeometry width="50" height="50" relative="1" as="geometry">
            <mxPoint x="320" y="860" as="sourcePoint" />
            <mxPoint x="455" y="810" as="targetPoint" />
          </mxGeometry>
        </mxCell>
        <mxCell id="GmHCTYgidwJcOvD8zUk5-20" value="" style="endArrow=classic;html=1;rounded=0;entryX=0;entryY=0.5;entryDx=0;entryDy=0;dashed=1;dashPattern=12 12;" edge="1" parent="1">
          <mxGeometry width="50" height="50" relative="1" as="geometry">
            <mxPoint x="320" y="860" as="sourcePoint" />
            <mxPoint x="455" y="910" as="targetPoint" />
          </mxGeometry>
        </mxCell>
        <mxCell id="GmHCTYgidwJcOvD8zUk5-21" value="" style="endArrow=classic;html=1;rounded=0;entryX=0.5;entryY=0;entryDx=0;entryDy=0;dashed=1;dashPattern=12 12;" edge="1" parent="1" target="GmHCTYgidwJcOvD8zUk5-25">
          <mxGeometry width="50" height="50" relative="1" as="geometry">
            <mxPoint x="575" y="440" as="sourcePoint" />
            <mxPoint x="710" y="490" as="targetPoint" />
            <Array as="points">
              <mxPoint x="780" y="440" />
            </Array>
          </mxGeometry>
        </mxCell>
        <mxCell id="GmHCTYgidwJcOvD8zUk5-22" value="wn" style="rounded=1;whiteSpace=wrap;html=1;shadow=0;dashed=1;dashPattern=12 12;" vertex="1" parent="1">
          <mxGeometry x="460" y="640" width="120" height="60" as="geometry" />
        </mxCell>
        <mxCell id="GmHCTYgidwJcOvD8zUk5-24" style="edgeStyle=none;rounded=0;orthogonalLoop=1;jettySize=auto;html=1;exitX=1;exitY=0.5;exitDx=0;exitDy=0;shadow=0;entryX=0;entryY=0.5;entryDx=0;entryDy=0;dashed=1;dashPattern=12 12;" edge="1" parent="1" target="GmHCTYgidwJcOvD8zUk5-25">
          <mxGeometry relative="1" as="geometry">
            <mxPoint x="580" y="670" as="sourcePoint" />
            <mxPoint x="830" y="620" as="targetPoint" />
            <Array as="points" />
          </mxGeometry>
        </mxCell>
        <mxCell id="GmHCTYgidwJcOvD8zUk5-31" style="edgeStyle=orthogonalEdgeStyle;rounded=0;orthogonalLoop=1;jettySize=auto;html=1;exitX=1;exitY=0.5;exitDx=0;exitDy=0;entryX=0;entryY=0.5;entryDx=0;entryDy=0;" edge="1" parent="1" source="GmHCTYgidwJcOvD8zUk5-25" target="3E_d9uGPmS8snrze4PGS-29">
          <mxGeometry relative="1" as="geometry" />
        </mxCell>
        <mxCell id="GmHCTYgidwJcOvD8zUk5-25" value="" style="ellipse;whiteSpace=wrap;html=1;" vertex="1" parent="1">
          <mxGeometry x="810" y="595" width="30" height="30" as="geometry" />
        </mxCell>
        <mxCell id="GmHCTYgidwJcOvD8zUk5-28" value="wn" style="rounded=1;whiteSpace=wrap;html=1;shadow=0;dashed=1;dashPattern=12 12;" vertex="1" parent="1">
          <mxGeometry x="455" y="870" width="120" height="60" as="geometry" />
        </mxCell>
        <mxCell id="GmHCTYgidwJcOvD8zUk5-29" style="edgeStyle=none;rounded=0;orthogonalLoop=1;jettySize=auto;html=1;exitX=1;exitY=0.5;exitDx=0;exitDy=0;shadow=0;entryX=0.5;entryY=1;entryDx=0;entryDy=0;dashed=1;dashPattern=12 12;" edge="1" parent="1" target="GmHCTYgidwJcOvD8zUk5-25">
          <mxGeometry relative="1" as="geometry">
            <Array as="points">
              <mxPoint x="820" y="900" />
            </Array>
            <mxPoint x="575" y="900" as="sourcePoint" />
            <mxPoint x="830" y="630" as="targetPoint" />
          </mxGeometry>
        </mxCell>
        <mxCell id="GmHCTYgidwJcOvD8zUk5-35" value="t &amp;lt; t1" style="edgeLabel;html=1;align=center;verticalAlign=middle;resizable=0;points=[];" vertex="1" connectable="0" parent="1">
          <mxGeometry x="367.69" y="570.16" as="geometry">
            <mxPoint x="2" y="-1" as="offset" />
          </mxGeometry>
        </mxCell>
        <mxCell id="GmHCTYgidwJcOvD8zUk5-36" value="t &amp;gt;= t1 and t &amp;lt; t2&amp;nbsp;" style="edgeLabel;html=1;align=center;verticalAlign=middle;resizable=0;points=[];" vertex="1" connectable="0" parent="1">
          <mxGeometry x="369.306816319827" y="654.9981080405578" as="geometry">
            <mxPoint x="-1" y="-3" as="offset" />
          </mxGeometry>
        </mxCell>
        <mxCell id="GmHCTYgidwJcOvD8zUk5-39" style="edgeStyle=orthogonalEdgeStyle;rounded=0;orthogonalLoop=1;jettySize=auto;html=1;exitX=0.5;exitY=1;exitDx=0;exitDy=0;entryX=0.457;entryY=-0.003;entryDx=0;entryDy=0;entryPerimeter=0;" edge="1" parent="1" target="GmHCTYgidwJcOvD8zUk5-22">
          <mxGeometry relative="1" as="geometry">
            <mxPoint x="514.74" y="590" as="sourcePoint" />
            <mxPoint x="514.74" y="630" as="targetPoint" />
          </mxGeometry>
        </mxCell>
        <mxCell id="GmHCTYgidwJcOvD8zUk5-40" value="State update" style="text;html=1;align=center;verticalAlign=middle;resizable=0;points=[];autosize=1;strokeColor=none;fillColor=none;" vertex="1" parent="1">
          <mxGeometry x="530" y="600" width="90" height="30" as="geometry" />
        </mxCell>
        <mxCell id="GmHCTYgidwJcOvD8zUk5-41" style="edgeStyle=orthogonalEdgeStyle;rounded=0;orthogonalLoop=1;jettySize=auto;html=1;exitX=0.5;exitY=1;exitDx=0;exitDy=0;entryX=0.494;entryY=-0.037;entryDx=0;entryDy=0;entryPerimeter=0;" edge="1" parent="1" target="GmHCTYgidwJcOvD8zUk5-28">
          <mxGeometry relative="1" as="geometry">
            <mxPoint x="512.5" y="835" as="sourcePoint" />
            <mxPoint x="513" y="875" as="targetPoint" />
          </mxGeometry>
        </mxCell>
        <mxCell id="GmHCTYgidwJcOvD8zUk5-42" value="State update" style="text;html=1;align=center;verticalAlign=middle;resizable=0;points=[];autosize=1;strokeColor=none;fillColor=none;" vertex="1" parent="1">
          <mxGeometry x="517.5" y="840" width="90" height="30" as="geometry" />
        </mxCell>
        <mxCell id="GmHCTYgidwJcOvD8zUk5-44" value="t &amp;lt; t1" style="edgeLabel;html=1;align=center;verticalAlign=middle;resizable=0;points=[];" vertex="1" connectable="0" parent="1">
          <mxGeometry x="370.003183680173" y="347.58" as="geometry">
            <mxPoint x="2" y="-1" as="offset" />
          </mxGeometry>
        </mxCell>
        <mxCell id="GmHCTYgidwJcOvD8zUk5-45" value="t &amp;gt;= t1 and t &amp;lt; t2&amp;nbsp;" style="edgeLabel;html=1;align=center;verticalAlign=middle;resizable=0;points=[];" vertex="1" connectable="0" parent="1">
          <mxGeometry x="371.62" y="432.4181080405578" as="geometry">
            <mxPoint x="-1" y="-3" as="offset" />
          </mxGeometry>
        </mxCell>
        <mxCell id="GmHCTYgidwJcOvD8zUk5-46" value="t &amp;lt; t1" style="edgeLabel;html=1;align=center;verticalAlign=middle;resizable=0;points=[];" vertex="1" connectable="0" parent="1">
          <mxGeometry x="371.623183680173" y="817.58" as="geometry">
            <mxPoint x="2" y="-1" as="offset" />
          </mxGeometry>
        </mxCell>
        <mxCell id="GmHCTYgidwJcOvD8zUk5-47" value="t &amp;gt;= t1 and t &amp;lt; t2&amp;nbsp;" style="edgeLabel;html=1;align=center;verticalAlign=middle;resizable=0;points=[];" vertex="1" connectable="0" parent="1">
          <mxGeometry x="373.24" y="902.4181080405579" as="geometry">
            <mxPoint x="-1" y="-3" as="offset" />
          </mxGeometry>
        </mxCell>
        <mxCell id="GmHCTYgidwJcOvD8zUk5-52" value="if" style="rhombus;whiteSpace=wrap;html=1;" vertex="1" parent="1">
          <mxGeometry x="270" y="370" width="50" height="40" as="geometry" />
        </mxCell>
        <mxCell id="GmHCTYgidwJcOvD8zUk5-53" value="if" style="rhombus;whiteSpace=wrap;html=1;" vertex="1" parent="1">
          <mxGeometry x="270" y="590" width="50" height="40" as="geometry" />
        </mxCell>
        <mxCell id="GmHCTYgidwJcOvD8zUk5-54" value="if" style="rhombus;whiteSpace=wrap;html=1;" vertex="1" parent="1">
          <mxGeometry x="270" y="840" width="50" height="40" as="geometry" />
        </mxCell>
      </root>
    </mxGraphModel>
  </diagram>
</mxfile>
